<?xml version="1.0" standalone="no"?><!DOCTYPE svg PUBLIC "-//W3C//DTD SVG 1.1//EN" "http://www.w3.org/Graphics/SVG/1.1/DTD/svg11.dtd"><svg t="1716362320631" class="icon" viewBox="0 0 1226 1024" version="1.1" xmlns="http://www.w3.org/2000/svg" p-id="3934" xmlns:xlink="http://www.w3.org/1999/xlink" width="239.453125" height="200"><path d="M691.214734 534.166912a77.79702 77.79702 0 0 1 37.61499 7.334399l99.538275-122.589243a79.735397 79.735397 0 1 1 110.487485 22.527083 81.0975 81.0975 0 0 1-80.835557 4.191085l-98.123783 121.017586a79.525843 79.525843 0 1 1-111.430479-17.288226l4.767359-3.143314-106.925062-251.465115a78.949568 78.949568 0 0 1-52.074234-11.001599L397.524436 402.671612a80.311671 80.311671 0 1 1-32.795242-22.527083l101.790983-125.732557a79.63062 79.63062 0 1 1 116.826501 25.670397l108.025222 254.084543zM1086.957959 0.327429h-948.233037A130.237974 130.237974 0 0 0 0.052389 119.249472V708.09695a130.133197 130.133197 0 0 0 138.620144 118.922043h413.869668v104.253246H181.369214a46.416269 46.416269 0 0 0 0 92.727761h838.531381a46.363881 46.363881 0 1 0 0-92.727761h-374.106747v-104.253246h441.373665a130.133197 130.133197 0 0 0 138.620144-118.922043V119.249472a130.133197 130.133197 0 0 0-138.829698-118.922043z m51.026463 707.769521a47.725983 47.725983 0 0 1-51.078852 43.482509h-948.233037a47.673595 47.673595 0 0 1-51.026463-43.482509V119.249472a47.673595 47.673595 0 0 1 51.026463-43.482509h948.233037a47.725983 47.725983 0 0 1 51.078852 43.482509V708.09695z" fill="#707070" p-id="3935"></path></svg>